<svg width="430" height="315" viewBox="0 0 430 315" fill="none" xmlns="http://www.w3.org/2000/svg">
<rect width="430" height="315" fill="#14141C"/>
<path d="M285.816 187.576C285.816 189.56 285.528 191.384 284.952 193.048C284.376 194.68 283.544 196.088 282.456 197.272C281.368 198.424 280.056 199.32 278.52 199.96C277.016 200.6 275.32 200.92 273.432 200.92C271.576 200.92 269.88 200.6 268.344 199.96C266.84 199.32 265.544 198.424 264.456 197.272C263.368 196.088 262.52 194.68 261.912 193.048C261.304 191.384 261 189.56 261 187.576C261 185.592 261.304 183.784 261.912 182.152C262.552 180.52 263.416 179.128 264.504 177.976C265.624 176.824 266.936 175.928 268.44 175.288C269.976 174.648 271.64 174.328 273.432 174.328C275.256 174.328 276.92 174.648 278.424 175.288C279.96 175.928 281.272 176.824 282.36 177.976C283.448 179.128 284.296 180.52 284.904 182.152C285.512 183.784 285.816 185.592 285.816 187.576ZM278.52 187.576C278.52 185.368 278.072 183.64 277.176 182.392C276.312 181.112 275.064 180.472 273.432 180.472C271.8 180.472 270.536 181.112 269.64 182.392C268.744 183.64 268.296 185.368 268.296 187.576C268.296 189.784 268.744 191.544 269.64 192.856C270.536 194.136 271.8 194.776 273.432 194.776C275.064 194.776 276.312 194.136 277.176 192.856C278.072 191.544 278.52 189.784 278.52 187.576ZM314.972 187.576C314.972 189.56 314.684 191.384 314.108 193.048C313.532 194.68 312.7 196.088 311.612 197.272C310.524 198.424 309.212 199.32 307.676 199.96C306.172 200.6 304.476 200.92 302.588 200.92C300.732 200.92 299.036 200.6 297.5 199.96C295.996 199.32 294.7 198.424 293.612 197.272C292.524 196.088 291.676 194.68 291.068 193.048C290.46 191.384 290.156 189.56 290.156 187.576C290.156 185.592 290.46 183.784 291.068 182.152C291.708 180.52 292.572 179.128 293.66 177.976C294.78 176.824 296.092 175.928 297.596 175.288C299.132 174.648 300.796 174.328 302.588 174.328C304.412 174.328 306.076 174.648 307.58 175.288C309.116 175.928 310.428 176.824 311.516 177.976C312.604 179.128 313.452 180.52 314.06 182.152C314.668 183.784 314.972 185.592 314.972 187.576ZM307.676 187.576C307.676 185.368 307.228 183.64 306.332 182.392C305.468 181.112 304.22 180.472 302.588 180.472C300.956 180.472 299.692 181.112 298.796 182.392C297.9 183.64 297.452 185.368 297.452 187.576C297.452 189.784 297.9 191.544 298.796 192.856C299.692 194.136 300.956 194.776 302.588 194.776C304.22 194.776 305.468 194.136 306.332 192.856C307.228 191.544 307.676 189.784 307.676 187.576ZM326.608 187.432C326.608 189.64 327.104 191.416 328.096 192.76C329.088 194.104 330.56 194.776 332.512 194.776C333.152 194.776 333.744 194.76 334.288 194.728V194.728C335.069 194.636 335.632 193.964 335.632 193.178V183.452C335.632 182.253 335.017 181.111 333.856 180.808V180.808C333.152 180.616 332.432 180.52 331.696 180.52C328.304 180.52 326.608 182.824 326.608 187.432ZM342.785 197.15C342.785 198.504 341.896 199.703 340.576 200.008V200.008C339.744 200.168 338.864 200.312 337.936 200.44C337.04 200.568 336.112 200.664 335.152 200.728C334.224 200.824 333.328 200.872 332.464 200.872C330.384 200.872 328.528 200.568 326.896 199.96C325.264 199.352 323.889 198.488 322.769 197.368C321.649 196.216 320.784 194.84 320.176 193.24C319.6 191.608 319.312 189.784 319.312 187.768C319.312 185.72 319.569 183.88 320.081 182.248C320.593 180.584 321.329 179.176 322.289 178.024C323.249 176.872 324.416 175.992 325.792 175.384C327.2 174.776 328.8 174.472 330.592 174.472C331.584 174.472 332.464 174.568 333.232 174.76V174.76C334.395 175.039 335.632 174.234 335.632 173.038V167.198C335.632 165.443 336.907 163.947 338.64 163.668V163.668C340.814 163.317 342.785 164.996 342.785 167.198V197.15ZM356.729 195.112C358.041 195.112 358.969 194.984 359.513 194.728C360.057 194.472 360.329 193.976 360.329 193.24C360.329 192.664 359.977 192.168 359.273 191.752C358.569 191.304 357.497 190.808 356.057 190.264C354.937 189.848 353.913 189.416 352.985 188.968C352.089 188.52 351.321 187.992 350.681 187.384C350.041 186.744 349.545 185.992 349.193 185.128C348.841 184.264 348.665 183.224 348.665 182.008C348.665 179.64 349.545 177.768 351.305 176.392C353.065 175.016 355.481 174.328 358.553 174.328C360.089 174.328 361.561 174.472 362.969 174.76C363.31 174.822 363.634 174.886 363.94 174.951C365.336 175.25 366.098 176.655 365.786 178.048L365.703 178.418C365.371 179.897 363.823 180.758 362.345 180.424V180.424C361.385 180.2 360.297 180.088 359.081 180.088C356.841 180.088 355.721 180.712 355.721 181.96C355.721 182.248 355.769 182.504 355.865 182.728C355.961 182.952 356.153 183.176 356.441 183.4C356.729 183.592 357.113 183.816 357.593 184.072C358.105 184.296 358.745 184.552 359.513 184.84C361.081 185.416 362.377 185.992 363.401 186.568C364.425 187.112 365.225 187.72 365.801 188.392C366.409 189.032 366.825 189.752 367.049 190.552C367.305 191.352 367.433 192.28 367.433 193.336C367.433 195.832 366.489 197.72 364.601 199C362.745 200.28 360.105 200.92 356.681 200.92C354.441 200.92 352.569 200.728 351.065 200.344C350.783 200.27 350.517 200.199 350.268 200.13C348.92 199.757 348.195 198.407 348.478 197.038V197.038C348.851 195.23 350.767 194.208 352.561 194.64C352.686 194.671 352.812 194.7 352.937 194.728C354.217 194.984 355.481 195.112 356.729 195.112Z" fill="url(#paint0_linear)"/>
<path d="M73 127.992C73 125.235 75.235 123 77.992 123V123C80.749 123 82.984 125.235 82.984 127.992V162.36C82.984 165.117 80.749 167.352 77.992 167.352V167.352C75.235 167.352 73 165.117 73 162.36V127.992ZM92.61 141.246C92.61 137.451 95.1296 134.123 98.882 133.56V133.56C101.442 133.133 104.13 132.92 106.946 132.92C109.805 132.92 112.173 133.304 114.05 134.072C115.97 134.797 117.485 135.843 118.594 137.208C119.703 138.573 120.493 140.195 120.962 142.072C121.431 143.949 121.666 146.04 121.666 148.344V162.584C121.666 165.217 119.531 167.352 116.898 167.352V167.352C114.265 167.352 112.13 165.217 112.13 162.584V149.496C112.13 146.424 111.725 144.248 110.914 142.968C110.103 141.688 108.589 141.048 106.37 141.048C105.687 141.048 104.962 141.091 104.194 141.176V141.176C103.015 141.242 102.146 142.245 102.146 143.426V162.584C102.146 165.217 100.011 167.352 97.378 167.352V167.352C94.7447 167.352 92.61 165.217 92.61 162.584V141.246Z" fill="url(#paint1_linear)"/>
<path d="M200.689 101.413C200.689 104.665 199.9 107.788 198.324 110.783C196.747 113.778 194.697 116.687 192.174 119.511C189.651 122.249 186.813 124.901 183.66 127.468C180.506 130.035 177.405 132.474 174.357 134.784C172.78 135.982 171.046 137.351 169.154 138.891C167.367 140.346 165.632 141.843 163.95 143.384C162.268 144.924 160.744 146.378 159.378 147.748C158.116 149.031 157.328 150.101 157.012 150.956H195.978C200.408 150.956 204 154.548 204 158.978V158.978C204 163.408 200.408 167 195.978 167H131.154C130.943 166.059 130.838 164.861 130.838 163.406C130.838 161.952 130.838 160.925 130.838 160.326C130.838 156.219 131.627 152.454 133.203 149.031C134.885 145.608 137.04 142.442 139.668 139.533C142.296 136.538 145.239 133.757 148.498 131.19C151.862 128.623 155.173 126.056 158.432 123.489C160.954 121.521 163.32 119.682 165.527 117.97C167.734 116.173 169.679 114.462 171.361 112.836C173.043 111.125 174.357 109.457 175.303 107.831C176.249 106.119 176.722 104.408 176.722 102.697C176.722 98.9318 175.408 96.2793 172.78 94.7391C170.152 93.1989 166.893 92.4288 163.004 92.4288C160.166 92.4288 157.485 92.8138 154.963 93.5839C152.545 94.2685 150.285 95.1241 148.183 96.1509C146.185 97.0922 144.451 98.0762 142.979 99.103V99.103C141.081 100.317 138.493 100.069 137.01 98.3719L134.139 95.0877C130.82 91.2905 131.408 85.4276 135.872 83.0812C138.442 81.7303 141.179 80.5251 144.083 79.4655C150.285 77.1552 156.907 76 163.95 76C170.362 76 175.881 76.599 180.506 77.7969C185.131 78.9948 188.916 80.7062 191.859 82.9309C194.907 85.0701 197.115 87.7226 198.481 90.8886C199.953 93.969 200.689 97.4772 200.689 101.413Z" fill="white"/>
<path d="M226.656 189.656C229.455 192.455 229.483 197.059 226.215 199.292C221.951 202.204 217.123 204.243 212.011 205.26C204.543 206.746 196.802 205.983 189.767 203.069C182.732 200.155 176.719 195.221 172.488 188.889C168.258 182.558 166 175.115 166 167.5C166 159.885 168.258 152.442 172.488 146.111C176.719 139.779 182.732 134.845 189.767 131.931C196.802 129.017 204.543 128.254 212.011 129.74C217.123 130.757 221.951 132.796 226.215 135.708C229.483 137.941 229.455 142.545 226.656 145.344V145.344C223.857 148.143 219.343 148.023 215.848 146.164C213.775 145.062 211.542 144.261 209.215 143.798C204.527 142.866 199.668 143.344 195.252 145.173C190.836 147.003 187.062 150.1 184.407 154.074C181.751 158.048 180.334 162.72 180.334 167.5C180.334 172.28 181.751 176.952 184.407 180.926C187.062 184.9 190.836 187.997 195.252 189.827C199.668 191.656 204.527 192.134 209.215 191.202C211.542 190.739 213.775 189.938 215.848 188.836C219.343 186.977 223.857 186.857 226.656 189.656V189.656Z" fill="white"/>
<path d="M232.5 167H221C217.686 167 215 169.686 215 173C215 176.314 217.686 179 221 179H227C233.627 179 239 184.373 239 191V204.5C239 207.538 241.462 210 244.5 210C247.538 210 250 207.538 250 204.5V184.5C250 174.835 242.165 167 232.5 167Z" fill="white"/>
<defs>
<linearGradient id="paint0_linear" x1="314.216" y1="163" x2="314.216" y2="200.92" gradientUnits="userSpaceOnUse">
<stop stop-color="white"/>
<stop offset="1" stop-color="white" stop-opacity="0.6"/>
</linearGradient>
<linearGradient id="paint1_linear" x1="97.333" y1="123" x2="97.333" y2="167.352" gradientUnits="userSpaceOnUse">
<stop stop-color="white"/>
<stop offset="1" stop-color="white" stop-opacity="0.6"/>
</linearGradient>
</defs>
</svg>
